<svg id="svg" version="1.1" xmlns="http://www.w3.org/2000/svg" xmlns:xlink="http://www.w3.org/1999/xlink" width="400" height="175.24773350200294" viewBox="0, 0, 400,175.24773350200294"><g id="svgg"><path id="path1" d="M70.000 47.244 C 59.538 49.546,56.163 61.834,63.970 69.199 C 66.107 71.214,68.354 72.088,72.042 72.336 C 81.688 72.986,86.988 81.403,82.956 89.667 C 77.801 100.231,61.334 96.965,60.576 85.228 C 60.472 83.617,60.207 82.333,59.978 82.333 C 59.899 82.333,59.833 82.229,59.833 82.101 C 59.833 81.511,58.093 80.385,56.936 80.227 C 53.248 79.721,51.568 83.030,52.734 88.500 C 53.807 93.531,54.875 95.060,62.989 103.188 L 69.083 109.292 70.295 109.668 C 71.866 110.155,73.336 110.075,74.692 109.426 C 76.060 108.773,87.701 97.062,89.049 94.984 C 97.591 81.819,88.998 65.187,73.167 64.241 C 70.390 64.075,69.252 63.473,68.391 61.713 C 66.191 57.216,71.750 53.181,75.566 56.504 C 78.372 58.947,82.378 57.188,82.407 53.500 C 82.438 49.583,75.431 46.050,70.000 47.244 M112.417 54.463 C 110.747 54.773,108.359 56.157,107.016 57.593 C 104.921 59.832,104.348 61.832,104.339 66.942 L 104.333 70.133 101.542 70.196 C 98.484 70.266,98.126 70.361,97.027 71.394 C 94.910 73.384,95.512 76.949,98.167 78.153 C 98.822 78.450,99.260 78.493,101.625 78.496 L 104.333 78.500 104.333 92.557 C 104.333 107.790,104.320 107.545,105.242 108.754 C 107.160 111.269,111.576 110.518,112.473 107.524 C 112.613 107.056,112.667 102.975,112.667 92.689 L 112.667 78.500 115.339 78.500 C 119.340 78.500,120.833 77.536,121.116 74.770 C 121.434 71.670,119.670 70.286,115.282 70.192 L 112.481 70.133 112.532 66.902 L 112.583 63.672 113.095 63.161 C 113.513 62.744,113.815 62.621,114.747 62.489 C 119.079 61.875,119.923 56.268,115.933 54.601 C 115.405 54.380,113.304 54.298,112.417 54.463 M295.417 58.969 C 291.649 60.732,292.758 66.597,296.899 66.806 C 301.264 67.026,303.092 61.764,299.523 59.255 C 298.590 58.599,296.516 58.455,295.417 58.969 M200.917 70.370 C 199.825 70.757,198.964 71.540,198.482 72.583 C 198.045 73.529,197.991 106.757,198.425 107.797 C 200.016 111.612,205.716 110.885,206.351 106.786 C 206.652 104.843,206.467 73.359,206.150 72.667 C 205.249 70.694,202.905 69.665,200.917 70.370 M125.917 70.648 C 125.047 71.049,124.453 71.621,123.972 72.521 L 123.583 73.250 123.534 82.500 C 123.468 94.757,123.742 96.533,126.347 100.778 C 133.851 113.006,151.927 113.412,160.182 101.538 C 163.197 97.202,163.535 95.249,163.467 82.570 L 163.417 73.057 162.912 72.241 C 161.350 69.714,157.484 69.714,155.921 72.241 L 155.417 73.057 155.330 82.820 L 155.243 92.583 154.783 93.952 C 151.731 103.035,139.464 104.866,133.901 97.069 C 131.871 94.225,131.835 93.985,131.782 82.917 C 131.734 72.771,131.746 72.910,130.777 71.735 C 129.721 70.453,127.445 69.944,125.917 70.648 M177.036 70.575 C 169.739 72.342,166.984 81.797,172.203 87.163 C 174.230 89.248,176.061 90.081,179.174 90.334 C 184.904 90.800,187.432 96.380,183.714 100.355 C 180.166 104.148,173.691 101.502,173.668 96.250 C 173.650 92.131,168.153 90.712,166.053 94.285 C 164.858 96.317,165.852 101.299,168.074 104.412 C 174.149 112.926,187.220 112.062,191.980 102.833 C 193.795 99.315,194.190 94.746,192.934 91.798 C 192.805 91.496,192.561 90.913,192.392 90.501 C 190.513 85.943,185.679 82.627,180.333 82.231 C 178.380 82.087,177.667 81.580,177.667 80.337 C 177.667 78.653,179.685 77.933,182.060 78.771 C 186.746 80.424,189.759 73.601,185.327 71.376 C 183.449 70.433,179.283 70.031,177.036 70.575 " stroke="none" fill="#046c64" fill-rule="evenodd"></path><path id="path2" d="M67.417 109.601 C 63.753 110.256,62.242 111.482,63.884 112.471 C 67.575 114.695,80.200 114.276,81.472 111.887 C 82.208 110.505,76.448 108.729,74.297 109.674 C 73.136 110.185,71.463 110.190,70.167 109.688 C 69.118 109.283,69.189 109.285,67.417 109.601 " stroke="none" fill="#a4a4a4" fill-rule="evenodd"></path><path id="path3" d="M72.042 110.115 C 72.202 110.157,72.465 110.157,72.625 110.115 C 72.785 110.073,72.654 110.039,72.333 110.039 C 72.012 110.039,71.881 110.073,72.042 110.115 " stroke="none" fill="#06746c" fill-rule="evenodd"></path><path id="path4" d="" stroke="none" fill="#1009c30" fill-rule="evenodd"></path><path id="path0" d="M201.494 58.319 C 198.409 58.932,197.076 62.780,199.139 65.114 C 201.671 67.979,206.387 66.229,206.365 62.434 C 206.349 59.709,204.092 57.802,201.494 58.319 M223.808 59.058 C 221.210 59.779,220.689 61.008,220.676 66.439 L 220.667 70.461 217.958 70.534 C 213.753 70.649,212.134 71.768,212.099 74.583 C 212.060 77.638,213.701 78.829,217.954 78.832 L 220.658 78.833 220.704 93.208 L 220.750 107.583 221.119 108.272 C 222.783 111.384,227.035 111.471,228.581 108.426 L 229.000 107.601 229.000 93.228 L 229.000 78.855 231.889 78.802 C 235.976 78.728,237.313 77.816,237.472 74.993 C 237.650 71.846,236.116 70.660,231.708 70.537 L 229.000 70.461 229.000 66.214 C 229.000 61.590,228.984 61.497,227.998 60.300 C 227.070 59.174,225.291 58.647,223.808 59.058 M283.667 58.994 C 282.664 59.212,282.200 59.465,281.516 60.170 C 280.244 61.480,280.323 59.757,280.373 85.092 L 280.417 107.750 280.782 108.432 C 282.368 111.396,286.621 111.387,288.224 108.417 L 288.583 107.750 288.583 84.833 C 288.583 62.501,288.575 61.900,288.261 61.266 C 287.399 59.529,285.510 58.595,283.667 58.994 M295.961 70.666 C 295.136 70.914,294.337 71.518,293.789 72.307 L 293.250 73.083 293.206 90.420 L 293.162 107.757 293.706 108.664 C 295.408 111.502,299.654 111.263,301.021 108.254 C 301.310 107.619,301.326 106.687,301.330 90.574 L 301.333 73.565 300.906 72.741 C 299.980 70.951,297.905 70.080,295.961 70.666 M253.583 70.827 C 236.298 72.474,229.380 94.374,242.534 105.804 C 247.563 110.173,249.903 110.706,263.750 110.633 L 273.083 110.583 273.956 110.124 C 274.590 109.789,274.931 109.471,275.206 108.957 L 275.583 108.250 275.583 98.333 C 275.583 90.616,275.532 88.139,275.353 87.167 C 273.437 76.752,264.196 69.816,253.583 70.827 M323.667 70.843 C 307.155 72.357,299.783 93.051,311.588 104.750 C 316.942 110.056,319.400 110.706,333.833 110.632 L 343.250 110.583 344.122 110.100 C 345.788 109.177,345.741 109.466,345.803 99.667 C 345.861 90.482,345.738 87.977,345.102 85.472 C 343.081 77.511,336.095 71.619,327.750 70.838 C 325.759 70.652,325.748 70.652,323.667 70.843 M70.866 76.345 C 63.816 77.733,62.156 86.975,68.250 90.912 C 72.954 93.951,79.389 90.916,80.172 85.289 C 80.922 79.898,76.143 75.305,70.866 76.345 M258.539 79.322 C 269.104 82.024,270.555 96.397,260.750 101.227 C 253.068 105.010,244.000 99.293,244.000 90.667 C 244.000 83.008,251.147 77.431,258.539 79.322 M328.707 79.322 C 339.195 82.005,340.681 96.397,330.961 101.156 C 322.113 105.487,312.151 97.552,314.398 87.962 C 315.875 81.656,322.408 77.711,328.707 79.322 " stroke="none" fill="#fccc04" fill-rule="evenodd"></path><path id="path1" d="M70.000 47.244 C 59.538 49.546,56.163 61.834,63.970 69.199 C 66.107 71.214,68.354 72.088,72.042 72.336 C 81.688 72.986,86.988 81.403,82.956 89.667 C 77.801 100.231,61.334 96.965,60.576 85.228 C 60.472 83.617,60.207 82.333,59.978 82.333 C 59.899 82.333,59.833 82.229,59.833 82.101 C 59.833 81.511,58.093 80.385,56.936 80.227 C 53.248 79.721,51.568 83.030,52.734 88.500 C 53.807 93.531,54.875 95.060,62.989 103.188 L 69.083 109.292 70.295 109.668 C 71.866 110.155,73.336 110.075,74.692 109.426 C 76.060 108.773,87.701 97.062,89.049 94.984 C 97.591 81.819,88.998 65.187,73.167 64.241 C 70.390 64.075,69.252 63.473,68.391 61.713 C 66.191 57.216,71.750 53.181,75.566 56.504 C 78.372 58.947,82.378 57.188,82.407 53.500 C 82.438 49.583,75.431 46.050,70.000 47.244 M112.417 54.463 C 110.747 54.773,108.359 56.157,107.016 57.593 C 104.921 59.832,104.348 61.832,104.339 66.942 L 104.333 70.133 101.542 70.196 C 98.484 70.266,98.126 70.361,97.027 71.394 C 94.910 73.384,95.512 76.949,98.167 78.153 C 98.822 78.450,99.260 78.493,101.625 78.496 L 104.333 78.500 104.333 92.557 C 104.333 107.790,104.320 107.545,105.242 108.754 C 107.160 111.269,111.576 110.518,112.473 107.524 C 112.613 107.056,112.667 102.975,112.667 92.689 L 112.667 78.500 115.339 78.500 C 119.340 78.500,120.833 77.536,121.116 74.770 C 121.434 71.670,119.670 70.286,115.282 70.192 L 112.481 70.133 112.532 66.902 L 112.583 63.672 113.095 63.161 C 113.513 62.744,113.815 62.621,114.747 62.489 C 119.079 61.875,119.923 56.268,115.933 54.601 C 115.405 54.380,113.304 54.298,112.417 54.463 M295.417 58.969 C 291.649 60.732,292.758 66.597,296.899 66.806 C 301.264 67.026,303.092 61.764,299.523 59.255 C 298.590 58.599,296.516 58.455,295.417 58.969 M200.917 70.370 C 199.825 70.757,198.964 71.540,198.482 72.583 C 198.045 73.529,197.991 106.757,198.425 107.797 C 200.016 111.612,205.716 110.885,206.351 106.786 C 206.652 104.843,206.467 73.359,206.150 72.667 C 205.249 70.694,202.905 69.665,200.917 70.370 M125.917 70.648 C 125.047 71.049,124.453 71.621,123.972 72.521 L 123.583 73.250 123.534 82.500 C 123.468 94.757,123.742 96.533,126.347 100.778 C 133.851 113.006,151.927 113.412,160.182 101.538 C 163.197 97.202,163.535 95.249,163.467 82.570 L 163.417 73.057 162.912 72.241 C 161.350 69.714,157.484 69.714,155.921 72.241 L 155.417 73.057 155.330 82.820 L 155.243 92.583 154.783 93.952 C 151.731 103.035,139.464 104.866,133.901 97.069 C 131.871 94.225,131.835 93.985,131.782 82.917 C 131.734 72.771,131.746 72.910,130.777 71.735 C 129.721 70.453,127.445 69.944,125.917 70.648 M177.036 70.575 C 169.739 72.342,166.984 81.797,172.203 87.163 C 174.230 89.248,176.061 90.081,179.174 90.334 C 184.904 90.800,187.432 96.380,183.714 100.355 C 180.166 104.148,173.691 101.502,173.668 96.250 C 173.650 92.131,168.153 90.712,166.053 94.285 C 164.858 96.317,165.852 101.299,168.074 104.412 C 174.149 112.926,187.220 112.062,191.980 102.833 C 193.795 99.315,194.190 94.746,192.934 91.798 C 192.805 91.496,192.561 90.913,192.392 90.501 C 190.513 85.943,185.679 82.627,180.333 82.231 C 178.380 82.087,177.667 81.580,177.667 80.337 C 177.667 78.653,179.685 77.933,182.060 78.771 C 186.746 80.424,189.759 73.601,185.327 71.376 C 183.449 70.433,179.283 70.031,177.036 70.575 " stroke="none" fill="#046c64" fill-rule="evenodd"></path><path id="path2" d="M67.417 109.601 C 63.753 110.256,62.242 111.482,63.884 112.471 C 67.575 114.695,80.200 114.276,81.472 111.887 C 82.208 110.505,76.448 108.729,74.297 109.674 C 73.136 110.185,71.463 110.190,70.167 109.688 C 69.118 109.283,69.189 109.285,67.417 109.601 " stroke="none" fill="#a4a4a4" fill-rule="evenodd"></path><path id="path3" d="M72.042 110.115 C 72.202 110.157,72.465 110.157,72.625 110.115 C 72.785 110.073,72.654 110.039,72.333 110.039 C 72.012 110.039,71.881 110.073,72.042 110.115 " stroke="none" fill="#06746c" fill-rule="evenodd"></path><path id="path4" d="" stroke="none" fill="#1009c30" fill-rule="evenodd"></path></g></svg>